<?xml version="1.0" encoding="UTF-8"?><svg id="a" xmlns="http://www.w3.org/2000/svg" viewBox="0 0 67.61 67.32"><defs><style>.b{fill:#fff;}</style></defs><polygon class="b" points="19.97 27.24 13.27 27.24 13.27 34.09 20.11 34.09 20.11 27.38 26.82 27.38 26.82 20.54 19.97 20.54 19.97 27.24"/><path class="b" d="M67.61,19.97h-6.7v-6.7h-6.7V6.7h-6.7V0H20.11V6.7h-6.7v6.56H6.7v6.7H0v27.38H6.56v6.7h6.56v6.7h6.85v6.56h27.67v-6.56h6.85v-6.7h6.56v-6.7h6.56V19.97Zm-19.97,40.51H19.97v-6.56h-6.56v-6.7H6.85V20.11h6.7v-6.56h6.7V6.85h27.1v6.7h6.7v6.56h6.7v27.1h-6.56v6.7h-6.56v6.56Z"/></svg>